<svg width="107" height="41" viewBox="0 0 107 41" fill="none" xmlns="http://www.w3.org/2000/svg">
<path d="M2.97321 31.0485C2.67375 31.2624 2.33864 31.3408 1.96788 31.2838C1.61138 31.2267 1.32618 31.0485 1.11228 30.749C0.898381 30.4495 0.819951 30.1216 0.876991 29.7651C0.948291 29.3943 1.13367 29.102 1.43313 28.8881C2.14613 28.389 2.852 27.7901 3.55074 27.0913C4.24948 26.3783 4.88405 25.6368 5.45445 24.8668C6.02486 24.0967 6.48118 23.3837 6.82342 22.7278C6.99454 22.3998 7.25122 22.1716 7.59346 22.0433C7.9357 21.9149 8.26368 21.9292 8.5774 22.0861C8.90538 22.2429 9.12641 22.4996 9.24049 22.8561C9.36883 23.1983 9.34744 23.5334 9.17632 23.8614C8.76278 24.66 8.22803 25.5013 7.57207 26.3854C6.91611 27.2696 6.18885 28.118 5.39028 28.9309C4.60598 29.7437 3.80029 30.4495 2.97321 31.0485ZM19.4649 30.9415C19.1512 31.1269 18.8161 31.1768 18.4596 31.0912C18.1031 30.9914 17.8321 30.7847 17.6468 30.4709C17.3901 30.0431 17.0621 29.5512 16.6628 28.995C16.2635 28.4389 15.8215 27.8685 15.3366 27.2838C14.8661 26.6992 14.3812 26.143 13.8821 25.6154C13.383 25.0735 12.9196 24.6101 12.4918 24.2251C12.2208 23.9826 12.0782 23.676 12.064 23.3053C12.0497 22.9345 12.1638 22.6137 12.4062 22.3427C12.6629 22.0861 12.9695 21.9577 13.326 21.9577C13.6967 21.9577 14.0176 22.0789 14.2885 22.3213C14.7591 22.7634 15.2653 23.2696 15.8072 23.84C16.3491 24.4104 16.8767 25.0094 17.3901 25.6368C17.9177 26.25 18.4025 26.8632 18.8446 27.4763C19.2867 28.0753 19.6503 28.6243 19.9355 29.1234C20.1209 29.4371 20.1708 29.7722 20.0852 30.1287C19.9997 30.4852 19.7929 30.7561 19.4649 30.9415ZM18.1815 22.963C17.5826 22.963 17.0692 22.7563 16.6414 22.3427C16.2279 21.9149 16.0211 21.4016 16.0211 20.8027C16.0211 20.2037 16.2279 19.6975 16.6414 19.284C17.0692 18.8562 17.5826 18.6423 18.1815 18.6423C18.7804 18.6423 19.2867 18.8562 19.7002 19.284C20.128 19.6975 20.3419 20.2037 20.3419 20.8027C20.3419 21.4016 20.128 21.9149 19.7002 22.3427C19.2867 22.7563 18.7804 22.963 18.1815 22.963ZM18.1815 21.7224C18.4382 21.7224 18.6521 21.6369 18.8232 21.4657C19.0086 21.2804 19.1013 21.0593 19.1013 20.8027C19.1013 20.546 19.0086 20.3321 18.8232 20.1609C18.6521 19.9756 18.4382 19.8829 18.1815 19.8829C17.9248 19.8829 17.7038 19.9756 17.5184 20.1609C17.3473 20.3321 17.2617 20.546 17.2617 20.8027C17.2617 21.0593 17.3473 21.2804 17.5184 21.4657C17.7038 21.6369 17.9248 21.7224 18.1815 21.7224ZM29.2829 34.7703C28.9407 34.9129 28.5985 34.9129 28.2562 34.7703C27.9282 34.6277 27.7001 34.3853 27.5717 34.0431C27.4291 33.7151 27.4291 33.38 27.5717 33.0377C27.7143 32.6955 27.9568 32.4602 28.299 32.3319C29.7535 31.7472 30.9941 30.9986 32.0209 30.0859C33.0618 29.1733 33.9032 28.1965 34.5449 27.1555C35.1866 26.1145 35.6358 25.1163 35.8924 24.1609C36.0778 23.5477 36.1705 23.0843 36.1705 22.7705C36.1705 22.4568 36.1063 22.2073 35.978 22.0219C35.7926 21.7937 35.4361 21.6369 34.9085 21.5513C34.3809 21.4515 33.5039 21.4016 32.2775 21.4016C31.2223 21.4016 30.4023 21.4301 29.8177 21.4871C29.2473 21.5299 28.8266 21.6083 28.5557 21.7224C28.299 21.8222 28.1065 21.9648 27.9781 22.1502C27.8641 22.3071 27.7928 22.4925 27.7642 22.7064C27.7357 22.9203 27.7571 23.2197 27.8284 23.6047C27.914 23.9755 28.0494 24.496 28.2348 25.1662C28.3489 25.5227 28.3204 25.865 28.1493 26.1929C27.9924 26.5067 27.7357 26.7206 27.3792 26.8346C27.037 26.9345 26.7019 26.9059 26.3739 26.7491C26.0459 26.578 25.832 26.3213 25.7322 25.979C25.3757 24.7812 25.1618 23.7117 25.0905 22.7705C25.0334 21.8151 25.2188 21.0522 25.6466 20.4818C25.9604 20.054 26.3596 19.7189 26.8445 19.4765C27.3293 19.2198 27.9995 19.0415 28.8551 18.9417C29.725 18.8276 30.8658 18.7706 32.2775 18.7706C33.5182 18.7706 34.5306 18.8276 35.3149 18.9417C36.0992 19.0558 36.7195 19.2269 37.1758 19.4551C37.6464 19.669 38.0172 19.9542 38.2881 20.3107C38.6732 20.8098 38.8657 21.423 38.8657 22.1502C38.8657 22.8775 38.7088 23.7901 38.3951 24.8881C38.1527 25.758 37.7819 26.6635 37.2828 27.6047C36.7837 28.5458 36.1491 29.4656 35.3791 30.364C34.6233 31.2624 33.7392 32.0966 32.7267 32.8666C31.7143 33.6224 30.5663 34.257 29.2829 34.7703ZM46.8227 27.84C46.4662 27.84 46.1525 27.7116 45.8816 27.4549C45.6249 27.184 45.4966 26.8703 45.4966 26.5138C45.4966 26.143 45.6249 25.8293 45.8816 25.5726C46.1525 25.3159 46.4662 25.1876 46.8227 25.1876H60.1487C60.5195 25.1876 60.8332 25.3159 61.0899 25.5726C61.3466 25.8293 61.4749 26.143 61.4749 26.5138C61.4749 26.8703 61.3466 27.184 61.0899 27.4549C60.8332 27.7116 60.5195 27.84 60.1487 27.84H46.8227ZM74.3303 34.9842C73.9738 34.9842 73.6601 34.8559 73.3891 34.5992C73.1325 34.3425 73.0041 34.0359 73.0041 33.6794C73.0041 33.3087 73.1325 33.0021 73.3891 32.7597C73.6601 32.503 73.9738 32.3675 74.3303 32.3533C75.1431 32.3247 75.6779 32.2107 75.9346 32.011C76.2055 31.7971 76.3267 31.3764 76.2982 30.749C76.2839 30.2927 76.2554 29.7152 76.2126 29.0164C76.1841 28.3177 76.1556 27.5762 76.1271 26.7919C75.3285 27.6189 74.4586 28.4531 73.5175 29.2945C72.5763 30.1358 71.628 30.9273 70.6726 31.6688C69.7172 32.4103 68.8046 33.052 67.9347 33.5939C67.621 33.7793 67.2859 33.822 66.9294 33.7222C66.5871 33.6224 66.3233 33.4156 66.1379 33.1019C65.9526 32.7882 65.9098 32.4602 66.0096 32.118C66.1094 31.7615 66.3162 31.4905 66.6299 31.3051C67.3572 30.8488 68.1842 30.2642 69.1111 29.5512C70.0523 28.8239 71.0149 28.0396 71.9988 27.1983C72.9827 26.3569 73.8954 25.5227 74.7367 24.6956H67.8705C67.514 24.6956 67.2074 24.5744 66.9508 24.332C66.7083 24.0753 66.5871 23.7687 66.5871 23.4122C66.5871 23.0557 66.7083 22.7563 66.9508 22.5139C67.2074 22.2572 67.514 22.1288 67.8705 22.1288H75.9132C75.8989 21.5442 75.8775 21.0308 75.849 20.5887C75.8347 20.1467 75.8205 19.8044 75.8062 19.562C75.792 19.1913 75.9132 18.8775 76.1699 18.6209C76.4265 18.3642 76.7331 18.2287 77.0896 18.2145C77.4604 18.2002 77.767 18.3214 78.0094 18.5781C78.2661 18.8205 78.4015 19.1271 78.4158 19.4979C78.4301 19.7688 78.4443 20.1324 78.4586 20.5887C78.4728 21.0451 78.4942 21.5584 78.5228 22.1288H81.7954C82.1519 22.1288 82.4514 22.2572 82.6938 22.5139C82.9505 22.7563 83.0788 23.0557 83.0788 23.4122C83.0788 23.7687 82.9505 24.0753 82.6938 24.332C82.4514 24.5744 82.1519 24.6956 81.7954 24.6956H78.6297C78.6582 25.4372 78.6867 26.1787 78.7153 26.9202C78.758 27.6617 78.7937 28.3533 78.8222 28.995C78.865 29.6367 78.8935 30.1786 78.9078 30.6207C78.9791 32.1607 78.6582 33.273 77.9452 33.9575C77.2322 34.642 76.0273 34.9842 74.3303 34.9842ZM91.1643 33.7222C90.822 33.8506 90.4798 33.8363 90.1375 33.6794C89.8095 33.5226 89.5814 33.273 89.453 32.9308C89.3247 32.5885 89.339 32.2534 89.4958 31.9255C89.6527 31.5832 89.9022 31.3479 90.2445 31.2196C91.3853 30.8203 92.5332 30.3283 93.6883 29.7437C94.8576 29.159 95.9699 28.5244 97.0251 27.84C98.0946 27.1412 99.0643 26.4282 99.9342 25.701C100.818 24.9594 101.538 24.2464 102.095 23.562C102.337 23.2768 102.636 23.1128 102.993 23.07C103.364 23.0272 103.685 23.127 103.955 23.3695C104.241 23.5976 104.405 23.8971 104.447 24.2678C104.49 24.6243 104.39 24.9452 104.148 25.2304C103.563 25.9434 102.786 26.7063 101.816 27.5191C100.847 28.3177 99.763 29.1091 98.5652 29.8934C97.3674 30.6777 96.1339 31.405 94.8647 32.0752C93.5956 32.7454 92.3621 33.2944 91.1643 33.7222ZM93.0038 25.2946C92.4619 24.8382 91.8559 24.3677 91.1856 23.8828C90.5154 23.3837 89.9094 22.9773 89.3675 22.6636C89.0538 22.4639 88.8541 22.193 88.7686 21.8508C88.683 21.4943 88.7329 21.1591 88.9183 20.8454C89.1179 20.5317 89.3889 20.3321 89.7311 20.2465C90.0876 20.1467 90.4227 20.1966 90.7365 20.3962C91.1215 20.6387 91.5564 20.9381 92.0412 21.2946C92.5403 21.6369 93.0181 21.9791 93.4744 22.3213C93.945 22.6636 94.33 22.9559 94.6294 23.1983C94.9146 23.4265 95.0786 23.726 95.1214 24.0967C95.1784 24.4532 95.0929 24.7741 94.8647 25.0593C94.6366 25.3445 94.3371 25.5156 93.9663 25.5726C93.6098 25.6154 93.289 25.5227 93.0038 25.2946Z" fill="#448568"/>
<path d="M6.79503 8.39197C6.67346 8.39197 6.56847 8.35053 6.48006 8.26764C6.39717 8.17923 6.35573 8.07424 6.35573 7.95267C6.35573 7.8311 6.39717 7.72887 6.48006 7.64598C6.56847 7.55757 6.67346 7.51336 6.79503 7.51336H8.8175C8.93907 7.51336 9.0413 7.55757 9.12419 7.64598C9.2126 7.72887 9.25681 7.8311 9.25681 7.95267C9.25681 8.07424 9.2126 8.17923 9.12419 8.26764C9.0413 8.35053 8.93907 8.39197 8.8175 8.39197H6.79503ZM14.1451 10.7294C14.029 10.7294 13.9296 10.6935 13.8467 10.6217C13.7693 10.5498 13.7306 10.4476 13.7306 10.315V7.22325C13.5759 7.24536 13.4267 7.2647 13.283 7.28127C13.1394 7.29785 13.0123 7.31167 12.9017 7.32272C12.7691 7.33377 12.6586 7.30338 12.5702 7.23154C12.4818 7.15971 12.432 7.06577 12.421 6.94972C12.4099 6.82263 12.4431 6.7204 12.5205 6.64304C12.5978 6.56567 12.6973 6.52423 12.8189 6.5187L12.9763 6.51042C13.0703 6.3999 13.1697 6.27004 13.2747 6.12084C13.3853 5.96612 13.5013 5.8031 13.6229 5.6318C13.5289 5.55997 13.4156 5.47708 13.283 5.38314C13.1504 5.28367 13.0233 5.1925 12.9017 5.10961C12.7802 5.0212 12.6835 4.95488 12.6116 4.91068C12.5232 4.84989 12.468 4.76701 12.4459 4.66201C12.4238 4.55702 12.4431 4.45756 12.5039 4.36362C12.5647 4.26968 12.6503 4.21166 12.7608 4.18955C12.8769 4.16192 12.9819 4.1785 13.0758 4.23928C13.0869 4.24481 13.0979 4.2531 13.109 4.26415C13.1255 4.2752 13.1421 4.28625 13.1587 4.29731C13.2195 4.19784 13.2858 4.08456 13.3576 3.95747C13.4295 3.83037 13.4985 3.7088 13.5648 3.59276C13.6312 3.47119 13.6809 3.37725 13.714 3.31094C13.7693 3.20042 13.8467 3.12859 13.9461 3.09543C14.0456 3.06228 14.1478 3.0678 14.2528 3.11201C14.3468 3.15622 14.4131 3.22529 14.4517 3.31923C14.496 3.41317 14.4877 3.51263 14.4269 3.61762C14.3827 3.70051 14.3219 3.80827 14.2445 3.94089C14.1672 4.07351 14.0843 4.21166 13.9959 4.35533C13.913 4.49347 13.8356 4.61781 13.7638 4.72832L14.0788 4.96041C14.1948 4.78358 14.3025 4.61504 14.402 4.45479C14.5015 4.29454 14.5844 4.15916 14.6507 4.04864C14.7115 3.94918 14.7943 3.88563 14.8993 3.858C15.0043 3.83037 15.1066 3.84695 15.206 3.90773C15.3 3.96299 15.3608 4.04312 15.3884 4.14811C15.4215 4.2531 15.4077 4.35257 15.3469 4.4465C15.2419 4.61781 15.1093 4.8195 14.9491 5.05159C14.7944 5.27815 14.6286 5.513 14.4517 5.75614C14.2804 5.99375 14.1147 6.22031 13.9544 6.43582C14.0981 6.42476 14.239 6.41371 14.3771 6.40266C14.5153 6.39161 14.6452 6.38056 14.7667 6.36951C14.7446 6.3253 14.7225 6.28386 14.7004 6.24517C14.6838 6.20649 14.67 6.17058 14.659 6.13742C14.6037 6.03795 14.5954 5.94401 14.6341 5.8556C14.6728 5.76719 14.7363 5.70364 14.8247 5.66496C14.9297 5.61523 15.0264 5.60694 15.1149 5.64009C15.2088 5.66772 15.2806 5.73127 15.3304 5.83073C15.3746 5.91362 15.4298 6.02138 15.4961 6.154C15.5624 6.28662 15.6288 6.422 15.6951 6.56015C15.7669 6.69277 15.8222 6.80329 15.8608 6.8917C15.905 6.99669 15.9078 7.09616 15.8691 7.1901C15.836 7.28404 15.7641 7.35311 15.6536 7.39732C15.5486 7.44152 15.4492 7.44705 15.3552 7.41389C15.2613 7.38074 15.1922 7.31167 15.148 7.20667C15.137 7.17905 15.1259 7.15418 15.1149 7.13208C15.1038 7.10445 15.0927 7.07682 15.0817 7.04919C15.0043 7.05471 14.9214 7.06577 14.833 7.08234C14.7446 7.09339 14.6534 7.10445 14.5595 7.1155V10.315C14.5595 10.4476 14.5181 10.5498 14.4352 10.6217C14.3578 10.6935 14.2611 10.7294 14.1451 10.7294ZM17.9165 8.24277C17.8446 8.16541 17.7424 8.06871 17.6098 7.95267C17.4827 7.8311 17.3777 7.73992 17.2948 7.67914C17.2119 7.61283 17.1649 7.52717 17.1539 7.42218C17.1428 7.31719 17.1705 7.22325 17.2368 7.14036C17.2699 7.09063 17.3141 7.05195 17.3694 7.02432C17.1815 7.04642 17.0047 7.06577 16.8389 7.08234C16.6787 7.09339 16.5378 7.10445 16.4162 7.1155C16.278 7.12655 16.162 7.09616 16.0681 7.02432C15.9796 6.95249 15.9272 6.85026 15.9106 6.71764C15.894 6.60159 15.9189 6.49936 15.9852 6.41095C16.057 6.31701 16.1565 6.26728 16.2836 6.26175C16.3333 6.26175 16.3858 6.26175 16.4411 6.26175C16.5018 6.25623 16.5599 6.2507 16.6151 6.24517C16.6814 6.1015 16.7533 5.93573 16.8306 5.74785C16.908 5.55997 16.9826 5.37485 17.0544 5.1925C17.1263 5.01014 17.1815 4.85818 17.2202 4.73661C17.2644 4.59294 17.3418 4.49347 17.4523 4.43822C17.5628 4.38296 17.6789 4.37743 17.8004 4.42164C17.9165 4.46032 18.0021 4.53216 18.0574 4.63715C18.1126 4.73661 18.1099 4.85542 18.0491 4.99357C17.9938 5.13724 17.9109 5.32512 17.8004 5.5572C17.6954 5.78376 17.596 5.99375 17.502 6.18715C17.6678 6.1761 17.8308 6.16505 17.9911 6.154C18.1568 6.13742 18.3088 6.12361 18.4469 6.11255C18.3917 6.01861 18.3337 5.93573 18.2729 5.86389C18.2121 5.77548 18.1955 5.68154 18.2231 5.58207C18.2508 5.47708 18.3088 5.39695 18.3972 5.3417C18.4967 5.27538 18.5989 5.25052 18.7039 5.2671C18.8089 5.28367 18.8973 5.33893 18.9691 5.43287C19.052 5.54892 19.1432 5.68154 19.2427 5.83073C19.3477 5.97993 19.4471 6.13189 19.5411 6.28662C19.6405 6.43582 19.7207 6.5712 19.7814 6.69277C19.8422 6.80881 19.8588 6.91933 19.8312 7.02432C19.8035 7.12379 19.74 7.20391 19.6405 7.2647C19.5355 7.32548 19.4278 7.34206 19.3173 7.31443C19.2068 7.2868 19.1211 7.22049 19.0603 7.1155C19.0382 7.07129 19.0161 7.02708 18.994 6.98288C18.9719 6.93867 18.947 6.89446 18.9194 6.85026C18.7647 6.87236 18.5768 6.89446 18.3558 6.91657C18.1347 6.93867 17.9109 6.96354 17.6844 6.99117C17.7396 7.00774 17.7838 7.02985 17.817 7.05748C17.8723 7.09616 17.9413 7.15418 18.0242 7.23154C18.1071 7.30338 18.19 7.37521 18.2729 7.44705C18.3558 7.51889 18.4193 7.57691 18.4635 7.62111C18.5519 7.69848 18.5989 7.79242 18.6044 7.90293C18.61 8.01345 18.574 8.11292 18.4967 8.20133C18.4248 8.28974 18.3281 8.33948 18.2066 8.35053C18.0905 8.35605 17.9938 8.32014 17.9165 8.24277ZM17.9496 10.5802C17.5131 10.5802 17.2147 10.5056 17.0544 10.3564C16.8942 10.2127 16.8141 9.95579 16.8141 9.58556V8.25106C16.8141 8.11844 16.8555 8.01621 16.9384 7.94438C17.0213 7.86702 17.1207 7.82833 17.2368 7.82833C17.3584 7.82833 17.4606 7.86702 17.5435 7.94438C17.6264 8.01621 17.6678 8.11844 17.6678 8.25106V9.4115C17.6678 9.52754 17.6871 9.6049 17.7258 9.64358C17.77 9.68226 17.8557 9.7016 17.9828 9.7016C18.0878 9.7016 18.1624 9.67674 18.2066 9.627C18.2563 9.57727 18.3005 9.48333 18.3392 9.34518C18.3723 9.23467 18.4359 9.15731 18.5298 9.1131C18.6293 9.06889 18.7398 9.06337 18.8614 9.09652C18.9719 9.12415 19.052 9.1877 19.1018 9.28716C19.157 9.3811 19.1708 9.48886 19.1432 9.61043C19.0658 9.95303 18.936 10.1989 18.7536 10.3481C18.5768 10.5029 18.3088 10.5802 17.9496 10.5802ZM15.6453 10.116C15.5459 10.0718 15.474 10.0028 15.4298 9.90882C15.3856 9.80936 15.3911 9.70437 15.4464 9.59385C15.4685 9.54964 15.4906 9.50267 15.5127 9.45294C15.5348 9.40321 15.5569 9.35071 15.579 9.29545L15.5293 9.32032C15.4132 9.359 15.3083 9.35624 15.2143 9.31203C15.1259 9.2623 15.0624 9.18493 15.0237 9.07994C14.996 8.98048 14.9601 8.86167 14.9159 8.72352C14.8717 8.58538 14.8275 8.44723 14.7833 8.30909C14.7446 8.16541 14.7115 8.04384 14.6838 7.94438C14.6562 7.83386 14.6673 7.73992 14.717 7.66256C14.7722 7.57967 14.8496 7.52717 14.9491 7.50507C15.0541 7.47744 15.1452 7.48573 15.2226 7.52994C15.3055 7.56862 15.3635 7.64322 15.3967 7.75374C15.4243 7.84215 15.4602 7.95543 15.5044 8.09358C15.5486 8.2262 15.5928 8.35882 15.637 8.49144C15.6868 8.62406 15.7255 8.73458 15.7531 8.82299L15.7614 8.83957C15.8111 8.67932 15.8526 8.53012 15.8857 8.39197C15.9133 8.27593 15.9714 8.19304 16.0598 8.14331C16.1537 8.08805 16.2559 8.07424 16.3665 8.10187C16.477 8.12397 16.5626 8.17923 16.6234 8.26764C16.6842 8.35605 16.7008 8.46105 16.6731 8.58262C16.6289 8.78155 16.5626 9.00534 16.4742 9.25401C16.3858 9.50267 16.2946 9.71818 16.2007 9.90053C16.1454 10.0111 16.0653 10.0829 15.9603 10.116C15.8608 10.1547 15.7559 10.1547 15.6453 10.116ZM15.7614 5.39143C15.673 5.33064 15.6177 5.24776 15.5956 5.14276C15.579 5.03777 15.6039 4.94383 15.6702 4.86094C15.7697 4.73938 15.8719 4.5957 15.9769 4.42993C16.0874 4.26415 16.1924 4.09561 16.2919 3.92431C16.3969 3.75301 16.4797 3.59828 16.5405 3.46014C16.5903 3.35515 16.6704 3.28607 16.7809 3.25292C16.8914 3.21424 16.9992 3.21976 17.1042 3.2695C17.2036 3.31923 17.2727 3.39659 17.3114 3.50158C17.3501 3.60657 17.3418 3.71156 17.2865 3.81656C17.2147 3.97128 17.1263 4.13982 17.0213 4.32217C16.9163 4.499 16.8085 4.67307 16.698 4.84437C16.5875 5.01014 16.4825 5.15382 16.383 5.27538C16.3112 5.36932 16.2145 5.43011 16.0929 5.45774C15.9769 5.48537 15.8664 5.46326 15.7614 5.39143ZM19.7814 5.1925C19.6875 5.28091 19.577 5.32235 19.4499 5.31683C19.3283 5.30578 19.2261 5.25328 19.1432 5.15934C19.0493 5.04882 18.9415 4.91897 18.8199 4.76977C18.7039 4.61504 18.5879 4.45479 18.4718 4.28902C18.3613 4.12324 18.2618 3.97404 18.1734 3.84142C18.1126 3.74196 18.0961 3.63973 18.1237 3.53474C18.1513 3.42422 18.2149 3.33857 18.3143 3.27778C18.4083 3.22253 18.5105 3.20595 18.621 3.22805C18.7315 3.24463 18.8172 3.30265 18.878 3.40212C18.9443 3.50711 19.0299 3.6342 19.1349 3.7834C19.2399 3.92707 19.3532 4.07351 19.4748 4.22271C19.5963 4.36638 19.7041 4.48795 19.798 4.58741C19.8809 4.6703 19.9224 4.77253 19.9224 4.8941C19.9279 5.01014 19.8809 5.10961 19.7814 5.1925ZM20.0218 9.90053C19.9168 9.96132 19.8091 9.98066 19.6986 9.95856C19.588 9.93645 19.5052 9.87291 19.4499 9.76791C19.3946 9.66292 19.3228 9.53859 19.2344 9.39492C19.146 9.24572 19.0548 9.10205 18.9609 8.9639C18.8724 8.82023 18.7923 8.70142 18.7205 8.60748C18.6542 8.51354 18.6321 8.41684 18.6542 8.31737C18.6763 8.21238 18.7315 8.12949 18.8199 8.06871C18.9139 8.0024 19.0161 7.97753 19.1266 7.99411C19.2427 8.00516 19.3338 8.05766 19.4002 8.1516C19.4775 8.25106 19.5632 8.37263 19.6571 8.51631C19.7511 8.65998 19.8422 8.80365 19.9306 8.94732C20.0191 9.08547 20.0937 9.20704 20.1544 9.31203C20.2152 9.41702 20.2318 9.52478 20.2042 9.63529C20.1821 9.74581 20.1213 9.83422 20.0218 9.90053ZM12.6779 9.75962C12.584 9.732 12.5122 9.67121 12.4624 9.57727C12.4182 9.48333 12.4155 9.38387 12.4541 9.27887C12.5039 9.16283 12.5564 9.02468 12.6116 8.86443C12.6669 8.70418 12.7194 8.53841 12.7691 8.36711C12.8189 8.1958 12.8575 8.04108 12.8852 7.90293C12.9073 7.79242 12.9598 7.71229 13.0427 7.66256C13.1255 7.61283 13.2195 7.59901 13.3245 7.62111C13.4184 7.64322 13.4958 7.69571 13.5566 7.7786C13.6173 7.85596 13.6339 7.95267 13.6063 8.06871C13.5621 8.28974 13.4985 8.53565 13.4156 8.80641C13.3383 9.07165 13.2609 9.30098 13.1836 9.49438C13.1394 9.61043 13.0703 9.69331 12.9763 9.74305C12.8879 9.78725 12.7885 9.79278 12.6779 9.75962ZM23.9341 10.5471C23.4865 10.5471 23.1274 10.4973 22.8566 10.3979C22.5913 10.2984 22.4007 10.1326 22.2847 9.90053C22.1686 9.66845 22.1106 9.35347 22.1106 8.95561C22.1106 8.55222 22.1686 8.23725 22.2847 8.01069C22.4007 7.7786 22.5913 7.61283 22.8566 7.51336C23.1274 7.41389 23.4865 7.36416 23.9341 7.36416H25.1692C25.6223 7.36416 25.9815 7.41389 26.2467 7.51336C26.5119 7.61283 26.7026 7.7786 26.8186 8.01069C26.9402 8.23725 27.001 8.55222 27.001 8.95561C27.001 9.35347 26.9402 9.66845 26.8186 9.90053C26.7026 10.1326 26.5119 10.2984 26.2467 10.3979C25.9815 10.4973 25.6223 10.5471 25.1692 10.5471H23.9341ZM21.3563 6.70935C21.2182 6.79776 21.0773 6.83368 20.9336 6.8171C20.7899 6.80052 20.6766 6.72869 20.5937 6.60159C20.5109 6.4745 20.4915 6.3474 20.5357 6.22031C20.5799 6.08769 20.6628 5.98546 20.7844 5.91362C21.1159 5.72022 21.4585 5.49089 21.8122 5.22565C22.1659 4.95488 22.5029 4.67583 22.8234 4.38848C23.1495 4.10114 23.4285 3.83313 23.6606 3.58447C23.959 3.25844 24.2491 3.09543 24.5309 3.09543C24.8183 3.09543 25.125 3.25292 25.451 3.56789C25.6886 3.79998 25.9621 4.04588 26.2716 4.3056C26.5865 4.56531 26.9181 4.8195 27.2662 5.06816C27.6199 5.31683 27.9735 5.54063 28.3272 5.73956C28.4488 5.81139 28.5289 5.91915 28.5676 6.06282C28.6118 6.20649 28.5924 6.34188 28.5095 6.46897C28.4211 6.60712 28.3023 6.68724 28.1531 6.70935C28.0039 6.73145 27.8575 6.69553 27.7138 6.60159C27.3767 6.38056 27.0286 6.13466 26.6694 5.86389C26.3103 5.59312 25.9677 5.31407 25.6416 5.02672C25.3156 4.73938 25.0283 4.46585 24.7796 4.20613C24.7022 4.11772 24.6276 4.07351 24.5558 4.07351C24.484 4.06798 24.4066 4.10943 24.3237 4.19784C24.0916 4.45203 23.8264 4.71727 23.528 4.99357C23.2296 5.26986 22.9201 5.53786 22.5996 5.79758C22.6494 5.77548 22.7129 5.76442 22.7903 5.76442H26.3047C26.4429 5.76442 26.5506 5.80863 26.628 5.89704C26.7109 5.98546 26.7523 6.09321 26.7523 6.22031C26.7523 6.34188 26.7109 6.44687 26.628 6.53528C26.5506 6.6237 26.4429 6.6679 26.3047 6.6679H22.7903C22.6521 6.6679 22.5416 6.6237 22.4587 6.53528C22.3814 6.44687 22.3427 6.34188 22.3427 6.22031C22.3427 6.10979 22.3703 6.01861 22.4256 5.94678C22.2432 6.08492 22.0609 6.22031 21.8785 6.35293C21.7017 6.48002 21.5276 6.59883 21.3563 6.70935ZM23.9424 9.66016H25.1692C25.4786 9.66016 25.6886 9.61595 25.7991 9.52754C25.9152 9.4336 25.9732 9.24296 25.9732 8.95561C25.9732 8.66827 25.9152 8.47762 25.7991 8.38368C25.6886 8.28974 25.4786 8.24277 25.1692 8.24277H23.9424C23.633 8.24277 23.4202 8.28974 23.3042 8.38368C23.1937 8.47762 23.1384 8.66827 23.1384 8.95561C23.1384 9.24296 23.1937 9.4336 23.3042 9.52754C23.4202 9.61595 23.633 9.66016 23.9424 9.66016ZM32.2644 10.3564C32.1428 10.4283 32.0102 10.4421 31.8665 10.3979C31.7284 10.3537 31.6261 10.2708 31.5598 10.1492C31.4935 10.0221 31.4769 9.89225 31.5101 9.75962C31.5488 9.627 31.6289 9.52478 31.7505 9.45294C32.0931 9.26506 32.3804 9.05784 32.6125 8.83128C32.8446 8.59919 33.0297 8.33119 33.1679 8.02727C33.3115 7.72334 33.4138 7.36416 33.4745 6.94972C33.5408 6.53528 33.574 6.04624 33.574 5.4826C33.574 5.25052 33.5657 5.00185 33.5491 4.73661C33.5381 4.47137 33.5187 4.2531 33.4911 4.0818C33.4745 3.93813 33.5105 3.81103 33.5989 3.70051C33.6928 3.59 33.8089 3.52645 33.947 3.50987C34.0907 3.49329 34.215 3.52921 34.32 3.61762C34.4305 3.70604 34.4941 3.82208 34.5106 3.96575C34.5327 4.09838 34.5466 4.25863 34.5521 4.4465C34.5631 4.62886 34.5687 4.81121 34.5687 4.99357C34.5742 5.17592 34.5769 5.33893 34.5769 5.4826C34.5769 6.27833 34.5106 6.98011 34.378 7.58796C34.2454 8.19028 34.0105 8.718 33.6735 9.17112C33.3419 9.61872 32.8722 10.0138 32.2644 10.3564ZM31.4355 7.61283C31.2973 7.60177 31.1841 7.54375 31.0957 7.43876C31.0128 7.33377 30.9741 7.20667 30.9796 7.05748C30.9907 6.9138 30.9934 6.72316 30.9879 6.48555C30.9824 6.24241 30.9741 5.98822 30.963 5.72298C30.952 5.45221 30.9354 5.19526 30.9133 4.95212C30.8967 4.70346 30.8774 4.50176 30.8553 4.34704C30.8332 4.19784 30.8663 4.06798 30.9547 3.95747C31.0432 3.84695 31.1564 3.7834 31.2946 3.76682C31.4383 3.75025 31.5654 3.7834 31.6759 3.86629C31.7864 3.94365 31.8499 4.05417 31.8665 4.19784C31.8831 4.35256 31.8997 4.56255 31.9162 4.82779C31.9383 5.08751 31.9549 5.3638 31.966 5.65667C31.9826 5.94954 31.9936 6.23136 31.9991 6.50213C32.0102 6.76737 32.0102 6.98288 31.9991 7.14865C31.9936 7.29785 31.9328 7.41389 31.8168 7.49678C31.7063 7.57967 31.5792 7.61835 31.4355 7.61283ZM39.8403 10.2072C39.7077 10.2459 39.5779 10.2348 39.4508 10.1741C39.3292 10.1133 39.2463 10.0138 39.2021 9.87567C39.1579 9.74305 39.1662 9.61319 39.227 9.48609C39.2933 9.359 39.3927 9.27335 39.5254 9.22914C40.205 9.00811 40.8018 8.69866 41.3157 8.3008C41.8352 7.89741 42.2165 7.44152 42.4596 6.93314C42.653 6.5187 42.5066 6.31148 42.0203 6.31148H39.0115C38.8733 6.31148 38.7545 6.26451 38.655 6.17058C38.5556 6.07111 38.5058 5.94954 38.5058 5.80587C38.5058 5.6622 38.5556 5.54339 38.655 5.44945C38.7545 5.35551 38.8733 5.30854 39.0115 5.30854H42.0617C42.537 5.30854 42.9017 5.39695 43.1559 5.57378C43.4156 5.74508 43.562 5.98546 43.5952 6.29491C43.6283 6.59883 43.551 6.94972 43.3631 7.34758C43.0592 7.98858 42.5977 8.56051 41.9788 9.06337C41.3655 9.56069 40.6526 9.94198 39.8403 10.2072ZM39.5419 4.69517C39.4038 4.69517 39.285 4.6482 39.1855 4.55426C39.0861 4.46032 39.0363 4.34428 39.0363 4.20613C39.0363 4.06246 39.0861 3.94365 39.1855 3.84971C39.285 3.75577 39.4038 3.7088 39.5419 3.7088H42.7083C42.8464 3.7088 42.9624 3.75577 43.0564 3.84971C43.1559 3.94365 43.2056 4.06246 43.2056 4.20613C43.2056 4.34428 43.1559 4.46032 43.0564 4.55426C42.9624 4.6482 42.8464 4.69517 42.7083 4.69517H39.5419ZM47.4163 10.2818C47.2837 10.3371 47.1511 10.3371 47.0184 10.2818C46.8913 10.2321 46.7974 10.1437 46.7366 10.0166C46.6814 9.88948 46.6786 9.75962 46.7283 9.627C46.7836 9.49438 46.8748 9.40044 47.0019 9.34518C47.9192 8.9418 48.7121 8.44171 49.3807 7.84491C50.0494 7.24812 50.5771 6.56844 50.9639 5.80587C51.0578 5.62904 51.0744 5.49642 51.0136 5.40801C50.9584 5.31959 50.8175 5.27538 50.5909 5.27538H49.4885C49.2233 5.62904 48.9276 5.97441 48.6016 6.31148C48.2756 6.64304 47.9357 6.93038 47.5821 7.17352C47.4716 7.25641 47.3445 7.2868 47.2008 7.2647C47.0626 7.23707 46.9521 7.16523 46.8692 7.04919C46.7919 6.93314 46.7642 6.80605 46.7863 6.6679C46.814 6.52423 46.8858 6.41371 47.0019 6.33635C47.3113 6.12637 47.6125 5.87494 47.9053 5.58207C48.1982 5.2892 48.4634 4.98251 48.7011 4.66201C48.9442 4.33599 49.1348 4.01825 49.273 3.7088C49.3282 3.58171 49.4222 3.49329 49.5548 3.44356C49.6874 3.3883 49.8173 3.39106 49.9444 3.45185C50.0715 3.50711 50.1599 3.60105 50.2096 3.73367C50.2649 3.86629 50.2621 3.99615 50.2013 4.12324C50.1792 4.1785 50.1516 4.23376 50.1184 4.28902H50.6904C51.3479 4.28902 51.7845 4.45756 52 4.79463C52.221 5.13171 52.1934 5.5876 51.9171 6.16229C51.6353 6.74803 51.2651 7.30338 50.8064 7.82833C50.3533 8.35329 49.8394 8.82575 49.2647 9.24572C48.69 9.66016 48.0739 10.0055 47.4163 10.2818ZM60.6369 9.90882C59.9904 9.97513 59.4378 10.0055 58.9792 10C58.5205 9.98895 58.1365 9.93922 57.827 9.8508C57.5176 9.75686 57.2634 9.62148 57.0645 9.44465C56.8158 9.21809 56.6528 8.95285 56.5754 8.64893C56.4981 8.345 56.4594 8.0024 56.4594 7.62111V6.56015C56.0781 6.61541 55.7079 6.6679 55.3487 6.71764C54.995 6.76737 54.6966 6.81158 54.4535 6.85026C54.3153 6.86683 54.1882 6.83368 54.0722 6.75079C53.9617 6.66238 53.8954 6.5491 53.8733 6.41095C53.8512 6.26728 53.8816 6.14018 53.9644 6.02967C54.0529 5.91915 54.1661 5.85284 54.3043 5.83073C54.553 5.8031 54.8707 5.76442 55.2575 5.71469C55.6443 5.66496 56.0449 5.61246 56.4594 5.5572V4.18126C56.4594 4.03759 56.5091 3.91878 56.6086 3.82484C56.7136 3.72538 56.8351 3.67565 56.9733 3.67565C57.117 3.67565 57.2358 3.72538 57.3297 3.82484C57.4292 3.92431 57.4789 4.04588 57.4789 4.18955V5.41629C57.8049 5.37209 58.0895 5.33617 58.3326 5.30854C58.5813 5.27538 58.7526 5.25052 58.8466 5.23394C59.4378 5.14 59.8827 5.17039 60.181 5.32512C60.4794 5.47432 60.659 5.74785 60.7198 6.14571C60.7806 6.56567 60.6728 6.93038 60.3966 7.23983C60.1203 7.54928 59.6312 7.79518 58.9294 7.97753C58.7968 8.01069 58.667 7.99687 58.5399 7.93609C58.4183 7.8753 58.3382 7.77584 58.2995 7.63769C58.2608 7.50507 58.2719 7.37798 58.3326 7.25641C58.399 7.12931 58.5012 7.04642 58.6393 7.00774C59.0372 6.89723 59.308 6.795 59.4516 6.70106C59.5953 6.60712 59.6616 6.49936 59.6506 6.3778C59.645 6.2728 59.6036 6.20926 59.5262 6.18715C59.4489 6.15952 59.2914 6.16229 59.0538 6.19544C58.9377 6.21202 58.736 6.23965 58.4487 6.27833C58.1669 6.31701 57.8436 6.36398 57.4789 6.41924V7.62111C57.4789 7.91951 57.501 8.14607 57.5452 8.3008C57.5949 8.44999 57.6668 8.57156 57.7607 8.6655C57.9375 8.82023 58.2387 8.91693 58.6642 8.95561C59.0897 8.99429 59.7141 8.97219 60.5375 8.8893C60.6811 8.87825 60.8055 8.91693 60.9105 9.00534C61.021 9.09376 61.0818 9.2098 61.0928 9.35347C61.1094 9.49162 61.0735 9.61595 60.9851 9.72647C60.8966 9.83699 60.7806 9.89777 60.6369 9.90882ZM60.9436 5.15934C60.8773 5.22565 60.7917 5.25604 60.6867 5.25052C60.5872 5.24499 60.5043 5.20355 60.438 5.12619C60.3717 5.04882 60.286 4.95488 60.181 4.84437C60.0816 4.73385 59.9904 4.63438 59.9075 4.54597C59.8523 4.49071 59.8246 4.42164 59.8246 4.33875C59.8246 4.25034 59.8578 4.17021 59.9241 4.09838C59.9849 4.03759 60.0595 4.0072 60.1479 4.0072C60.2363 4.00167 60.3164 4.02654 60.3883 4.0818C60.4712 4.14811 60.5706 4.23652 60.6867 4.34704C60.8082 4.45203 60.9077 4.5515 60.9851 4.64544C61.0458 4.71727 61.0735 4.80292 61.0679 4.90239C61.0624 5.00185 61.021 5.08751 60.9436 5.15934ZM61.1923 4.40506C61.1204 4.33322 61.0293 4.24481 60.9187 4.13982C60.8138 4.03483 60.7143 3.94365 60.6204 3.86629C60.5651 3.81656 60.5319 3.74748 60.5209 3.65907C60.5154 3.57066 60.543 3.49053 60.6038 3.41869C60.6646 3.35238 60.7364 3.31647 60.8193 3.31094C60.9077 3.29989 60.9878 3.31923 61.0597 3.36896C61.1536 3.42422 61.2614 3.50434 61.3829 3.60934C61.5045 3.7088 61.6095 3.80274 61.6979 3.89116C61.7697 3.96299 61.8029 4.04864 61.7974 4.14811C61.7974 4.24205 61.7642 4.3277 61.6979 4.40506C61.6371 4.4769 61.5542 4.51282 61.4492 4.51282C61.3498 4.51282 61.2641 4.4769 61.1923 4.40506ZM63.422 7.39732C63.2838 7.39732 63.1623 7.34758 63.0573 7.24812C62.9578 7.14313 62.9081 7.02156 62.9081 6.88341C62.9081 6.73974 62.9578 6.61817 63.0573 6.5187C63.1623 6.41924 63.2838 6.36951 63.422 6.36951H68.5859C68.7296 6.36951 68.8511 6.41924 68.9506 6.5187C69.0501 6.61817 69.0998 6.73974 69.0998 6.88341C69.0998 7.02156 69.0501 7.14313 68.9506 7.24812C68.8511 7.34758 68.7296 7.39732 68.5859 7.39732H63.422ZM72.2247 9.95027C72.0865 9.98895 71.9539 9.9779 71.8268 9.91711C71.7052 9.8508 71.6223 9.74857 71.5781 9.61043C71.5395 9.47781 71.5505 9.34795 71.6113 9.22085C71.6776 9.09376 71.7771 9.01087 71.9097 8.97219C72.3352 8.83957 72.769 8.65445 73.211 8.41684C73.6586 8.17923 74.0896 7.90846 74.5041 7.60454C74.9241 7.29509 75.3081 6.96906 75.6562 6.62646C76.0099 6.28386 76.3028 5.94125 76.5348 5.59865C76.6122 5.4826 76.72 5.41077 76.8581 5.38314C76.9963 5.35551 77.1233 5.38314 77.2394 5.46603C77.361 5.54339 77.4328 5.65114 77.4549 5.78929C77.4825 5.92744 77.4577 6.05453 77.3803 6.17058C77.1261 6.54633 76.8028 6.92762 76.4105 7.31443C76.0182 7.69571 75.5872 8.06042 75.1175 8.40855C74.6478 8.75115 74.1642 9.05784 73.6669 9.32861C73.1696 9.59385 72.6888 9.80107 72.2247 9.95027ZM73.41 5.73956C73.3326 5.66772 73.2221 5.58207 73.0784 5.4826C72.9403 5.38314 72.7966 5.28644 72.6474 5.1925C72.4982 5.09303 72.3683 5.01567 72.2578 4.96041C72.1363 4.8941 72.0561 4.79187 72.0174 4.65372C71.9788 4.51558 71.9953 4.38572 72.0672 4.26415C72.139 4.13706 72.244 4.05693 72.3822 4.02378C72.5203 3.99062 72.6502 4.0072 72.7717 4.07351C72.8933 4.13982 73.0397 4.231 73.211 4.34704C73.3879 4.45756 73.5592 4.57084 73.7249 4.68688C73.8907 4.80292 74.0206 4.90239 74.1145 4.98528C74.2195 5.07922 74.272 5.19802 74.272 5.3417C74.2775 5.48537 74.2333 5.6097 74.1394 5.71469C74.0399 5.81968 73.9211 5.87218 73.783 5.87218C73.6448 5.87218 73.5205 5.82797 73.41 5.73956ZM72.5314 7.2647C72.454 7.20391 72.3407 7.12931 72.1915 7.0409C72.0478 6.94696 71.8959 6.85578 71.7356 6.76737C71.5809 6.67895 71.4483 6.60988 71.3378 6.56015C71.2107 6.49936 71.125 6.3999 71.0808 6.26175C71.0366 6.12361 71.0449 5.99375 71.1057 5.87218C71.172 5.74508 71.2715 5.6622 71.4041 5.62351C71.5422 5.57931 71.6721 5.5876 71.7937 5.64838C71.9263 5.70917 72.081 5.78929 72.2578 5.88876C72.4402 5.98822 72.617 6.09321 72.7883 6.20373C72.9596 6.30872 73.095 6.3999 73.1945 6.47726C73.305 6.56567 73.3658 6.68172 73.3768 6.82539C73.3879 6.96354 73.3464 7.08787 73.2525 7.19839C73.1641 7.3089 73.048 7.36969 72.9044 7.38074C72.7662 7.39179 72.6419 7.35311 72.5314 7.2647ZM80.8036 9.89225C80.682 9.89225 80.5743 9.84804 80.4803 9.75962C80.3919 9.67121 80.3477 9.56622 80.3477 9.44465C80.3477 9.31756 80.3919 9.21256 80.4803 9.12968C80.5743 9.04679 80.682 9.00534 80.8036 9.00534H83.0913C83.2957 9.00534 83.4532 8.99153 83.5637 8.9639C83.6743 8.93627 83.7516 8.87272 83.7958 8.77326C83.8456 8.67379 83.876 8.52183 83.887 8.31737H80.8367C80.7152 8.31737 80.6102 8.27593 80.5218 8.19304C80.4389 8.10463 80.3974 7.99964 80.3974 7.87807C80.3974 7.75097 80.4389 7.64598 80.5218 7.56309C80.6102 7.47468 80.7152 7.43047 80.8367 7.43047H83.8787C83.8621 7.25364 83.8262 7.12379 83.771 7.0409C83.7212 6.95248 83.6439 6.89723 83.5389 6.87512C83.4339 6.84749 83.2875 6.83368 83.0996 6.83368H80.903C80.7815 6.83368 80.6765 6.79223 80.5881 6.70935C80.4997 6.62093 80.4555 6.51594 80.4555 6.39437C80.4555 6.26728 80.4997 6.16229 80.5881 6.0794C80.6765 5.99098 80.7815 5.94678 80.903 5.94678H83.0996C83.4367 5.94678 83.7157 5.97441 83.9367 6.02967C84.1578 6.08492 84.3291 6.18439 84.4507 6.32806C84.5777 6.46621 84.6662 6.66514 84.7159 6.92486C84.7712 7.17905 84.7988 7.50783 84.7988 7.91122C84.7988 8.31461 84.7712 8.64616 84.7159 8.90588C84.6662 9.16559 84.5777 9.36729 84.4507 9.51096C84.3291 9.65463 84.1578 9.7541 83.9367 9.80936C83.7157 9.86462 83.4367 9.89225 83.0996 9.89225H80.8036ZM88.8934 9.67674C88.7608 9.72647 88.6282 9.72094 88.4956 9.66016C88.3685 9.59937 88.2801 9.50267 88.2303 9.37005C88.1806 9.23743 88.1861 9.10757 88.2469 8.98048C88.3077 8.84786 88.4044 8.75668 88.537 8.70695C88.9791 8.55222 89.4239 8.36158 89.8715 8.13502C90.3246 7.90846 90.7557 7.66256 91.1646 7.39732C91.579 7.12655 91.9548 6.85026 92.2919 6.56844C92.6345 6.28109 92.9135 6.0048 93.129 5.73956C93.223 5.62904 93.339 5.56549 93.4771 5.54892C93.6208 5.53234 93.7452 5.57102 93.8501 5.66496C93.9607 5.75337 94.0242 5.86942 94.0408 6.01309C94.0574 6.15123 94.0187 6.27557 93.9247 6.38608C93.6982 6.66238 93.397 6.95801 93.0213 7.27299C92.6455 7.58243 92.2255 7.88912 91.7614 8.19304C91.2972 8.49696 90.8192 8.77878 90.3274 9.0385C89.8356 9.29822 89.3576 9.51096 88.8934 9.67674ZM89.6063 6.41095C89.3963 6.23412 89.1614 6.05177 88.9017 5.86389C88.642 5.67048 88.4072 5.513 88.1972 5.39143C88.0756 5.31407 87.9983 5.20907 87.9651 5.07645C87.9319 4.93831 87.9513 4.80845 88.0231 4.68688C88.1005 4.56531 88.2055 4.48795 88.3381 4.45479C88.4762 4.41611 88.6061 4.43545 88.7277 4.51282C88.8769 4.60675 89.0454 4.7228 89.2333 4.86094C89.4267 4.99357 89.6118 5.12619 89.7886 5.25881C89.971 5.39143 90.1202 5.50471 90.2362 5.59865C90.3467 5.68706 90.4103 5.8031 90.4269 5.94678C90.449 6.08492 90.4158 6.20926 90.3274 6.31977C90.239 6.43029 90.1229 6.4966 89.9793 6.5187C89.8411 6.53528 89.7168 6.49936 89.6063 6.41095ZM98.3118 8.39197C98.1902 8.39197 98.0852 8.35053 97.9968 8.26764C97.9139 8.17923 97.8725 8.07424 97.8725 7.95267C97.8725 7.8311 97.9139 7.72887 97.9968 7.64598C98.0852 7.55757 98.1902 7.51336 98.3118 7.51336H100.334C100.456 7.51336 100.558 7.55757 100.641 7.64598C100.729 7.72887 100.774 7.8311 100.774 7.95267C100.774 8.07424 100.729 8.17923 100.641 8.26764C100.558 8.35053 100.456 8.39197 100.334 8.39197H98.3118Z" fill="#448568"/>
</svg>
